<svg width="24" height="24" viewBox="0 0 24 24" fill="none" xmlns="http://www.w3.org/2000/svg">
<path fill-rule="evenodd" clip-rule="evenodd" d="M18.05 11C18.05 13.4848 16.5142 15.7554 14.7296 17.5231C13.8602 18.3843 12.9855 19.0722 12.3265 19.545C12.2101 19.6286 12.1008 19.7051 12 19.7744C11.8992 19.7051 11.7899 19.6286 11.6735 19.545C11.0145 19.0722 10.1398 18.3843 9.27041 17.5231C7.48578 15.7554 5.95 13.4848 5.95 11C5.95 7.65868 8.65868 4.95 12 4.95C15.3413 4.95 18.05 7.65868 18.05 11ZM19.5 11C19.5 17.1421 12 21.5 12 21.5C12 21.5 4.5 17.1421 4.5 11C4.5 6.85786 7.85786 3.5 12 3.5C16.1421 3.5 19.5 6.85786 19.5 11ZM13.55 11C13.55 11.856 12.856 12.55 12 12.55C11.144 12.55 10.45 11.856 10.45 11C10.45 10.144 11.144 9.45 12 9.45C12.856 9.45 13.55 10.144 13.55 11ZM15 11C15 12.6569 13.6569 14 12 14C10.3431 14 9 12.6569 9 11C9 9.34315 10.3431 8 12 8C13.6569 8 15 9.34315 15 11Z" fill="#878594"/>
</svg>
