<svg width="24" height="24" viewBox="0 0 24 24" fill="none" xmlns="http://www.w3.org/2000/svg">
<path fill-rule="evenodd" clip-rule="evenodd" d="M13.3099 1.48154C12.6786 0.788603 11.5881 0.788603 10.9568 1.48154L9.7216 2.83723C9.68433 2.87815 9.62664 2.8936 9.5739 2.87681L7.82637 2.32033C6.93315 2.03589 5.98879 2.58112 5.7885 3.49689L5.39666 5.28854C5.38484 5.34261 5.34261 5.38484 5.28854 5.39666L3.49689 5.7885C2.58112 5.98879 2.03589 6.93315 2.32033 7.82637L2.87681 9.5739C2.8936 9.62664 2.87815 9.68433 2.83723 9.7216L1.48154 10.9568C0.788603 11.5881 0.788603 12.6786 1.48154 13.3099L2.83723 14.5451C2.87815 14.5823 2.8936 14.64 2.87681 14.6928L2.32033 16.4403C2.03589 17.3335 2.58112 18.2779 3.49689 18.4782L5.28854 18.87C5.34261 18.8818 5.38484 18.9241 5.39666 18.9781L5.7885 20.7698C5.98879 21.6855 6.93315 22.2308 7.82637 21.9463L9.5739 21.3899C9.62664 21.3731 9.68433 21.3885 9.7216 21.4294L10.9568 22.7851C11.5881 23.4781 12.6786 23.4781 13.3099 22.7851L14.5451 21.4294C14.5823 21.3885 14.64 21.3731 14.6928 21.3899L16.4403 21.9463C17.3335 22.2308 18.2779 21.6855 18.4782 20.7698L18.87 18.9781C18.8818 18.9241 18.9241 18.8818 18.9781 18.87L20.7698 18.4782C21.6855 18.2779 22.2308 17.3335 21.9463 16.4403L21.3899 14.6928C21.3731 14.64 21.3885 14.5823 21.4294 14.5451L22.7851 13.3099C23.4781 12.6786 23.4781 11.5881 22.7851 10.9568L21.4294 9.7216C21.3885 9.68433 21.3731 9.62664 21.3899 9.5739L21.9463 7.82637C22.2308 6.93315 21.6855 5.98879 20.7698 5.7885L18.9781 5.39666C18.9241 5.38484 18.8818 5.34261 18.87 5.28854L18.4782 3.49689C18.2779 2.58112 17.3335 2.03589 16.4403 2.32033L14.6928 2.87681C14.64 2.8936 14.5823 2.87815 14.5451 2.83723L13.3099 1.48154ZM12.0286 2.45809C12.0848 2.39642 12.1819 2.39642 12.2381 2.45809L13.4732 3.81378C13.892 4.27346 14.5402 4.44714 15.1327 4.25845L16.8803 3.70197C16.9598 3.67665 17.0438 3.72518 17.0616 3.80669L17.4535 5.59833C17.5863 6.20583 18.0608 6.68032 18.6683 6.81318L20.46 7.20502C20.5415 7.22285 20.59 7.3069 20.5647 7.3864L20.0082 9.13393C19.8195 9.72647 19.9932 10.3746 20.4529 10.7934L21.8086 12.0286C21.8702 12.0848 21.8702 12.1819 21.8086 12.2381L20.4529 13.4732C19.9932 13.892 19.8195 14.5402 20.0082 15.1327L20.5647 16.8803C20.59 16.9598 20.5415 17.0438 20.46 17.0616L18.6683 17.4535C18.0608 17.5863 17.5863 18.0608 17.4535 18.6683L17.0616 20.46C17.0438 20.5415 16.9598 20.59 16.8803 20.5647L15.1327 20.0082C14.5402 19.8195 13.892 19.9932 13.4732 20.4529L12.2381 21.8086C12.1819 21.8702 12.0848 21.8702 12.0286 21.8086L10.7934 20.4529C10.3746 19.9932 9.72647 19.8195 9.13393 20.0082L7.3864 20.5647C7.3069 20.59 7.22285 20.5415 7.20502 20.46L6.81318 18.6683C6.68032 18.0608 6.20583 17.5863 5.59833 17.4535L3.80669 17.0616C3.72518 17.0438 3.67665 16.9598 3.70197 16.8803L4.25845 15.1327C4.44714 14.5402 4.27346 13.892 3.81378 13.4732L2.45809 12.2381C2.39642 12.1819 2.39642 12.0848 2.45809 12.0286L3.81378 10.7934C4.27346 10.3746 4.44714 9.72647 4.25845 9.13393L3.70197 7.3864C3.67665 7.3069 3.72518 7.22285 3.80669 7.20502L5.59833 6.81318C6.20583 6.68032 6.68032 6.20583 6.81318 5.59833L7.20502 3.80669C7.22285 3.72518 7.3069 3.67665 7.3864 3.70197L9.13393 4.25845C9.72647 4.44714 10.3746 4.27346 10.7934 3.81378L12.0286 2.45809ZM8.20121 9.41667C8.20121 8.74539 8.74539 8.2012 9.41668 8.2012C10.088 8.2012 10.6322 8.74539 10.6322 9.41667C10.6322 10.088 10.088 10.6322 9.41668 10.6322C8.74539 10.6322 8.20121 10.088 8.20121 9.41667ZM9.41668 6.7512C7.94458 6.7512 6.75121 7.94457 6.75121 9.41667C6.75121 10.8888 7.94458 12.0822 9.41668 12.0822C10.8888 12.0822 12.0822 10.8888 12.0822 9.41667C12.0822 7.94457 10.8888 6.7512 9.41668 6.7512ZM14.85 14.4107C14.1787 14.4107 13.6345 14.9549 13.6345 15.6262C13.6345 16.2975 14.1787 16.8417 14.85 16.8417C15.5213 16.8417 16.0655 16.2975 16.0655 15.6262C16.0655 14.9549 15.5213 14.4107 14.85 14.4107ZM12.1845 15.6262C12.1845 14.1541 13.3779 12.9607 14.85 12.9607C16.3221 12.9607 17.5155 14.1541 17.5155 15.6262C17.5155 17.0983 16.3221 18.2917 14.85 18.2917C13.3779 18.2917 12.1845 17.0983 12.1845 15.6262ZM16.4993 9.56745C16.7969 9.2996 16.821 8.84119 16.5532 8.54357C16.2853 8.24595 15.8269 8.22182 15.5293 8.48968L7.76737 15.4754C7.46976 15.7432 7.44563 16.2017 7.71349 16.4993C7.98134 16.7969 8.43975 16.821 8.73737 16.5532L16.4993 9.56745Z" fill="#878594"/>
</svg>
