<svg width="21" height="20" viewBox="0 0 21 20" fill="none" xmlns="http://www.w3.org/2000/svg">
<path fill-rule="evenodd" clip-rule="evenodd" d="M0 0.725C0 0.324593 0.324594 0 0.725 0H2.59355C3.58697 0 4.46003 0.658549 4.73294 1.61375L5.12901 3H17.8038C19.2514 3 20.3135 4.36034 19.9624 5.76464L18.8071 10.3859C18.5038 11.599 17.4139 12.45 16.1634 12.45H7.82901L8.00766 13.0753C8.16405 13.6226 8.66434 14 9.2336 14H15.725C16.1254 14 16.45 14.3246 16.45 14.725C16.45 15.1254 16.1254 15.45 15.725 15.45H9.2336C8.01694 15.45 6.94769 14.6435 6.61345 13.4736L6.17075 11.9242L3.88504 3.92417L3.33873 2.01209C3.24367 1.67938 2.93957 1.45 2.59355 1.45H0.725C0.324594 1.45 0 1.12541 0 0.725ZM7.41473 11H16.1634C16.7485 11 17.2585 10.6018 17.4004 10.0342L18.5557 5.41296C18.678 4.92383 18.308 4.45 17.8038 4.45H5.5433L7.41473 11ZM8.725 18.225C8.725 19.0534 8.05343 19.725 7.225 19.725C6.39657 19.725 5.725 19.0534 5.725 18.225C5.725 17.3966 6.39657 16.725 7.225 16.725C8.05343 16.725 8.725 17.3966 8.725 18.225ZM17.225 19.725C18.0534 19.725 18.725 19.0534 18.725 18.225C18.725 17.3966 18.0534 16.725 17.225 16.725C16.3966 16.725 15.725 17.3966 15.725 18.225C15.725 19.0534 16.3966 19.725 17.225 19.725Z" fill="#878594"/>
</svg>
