<svg width="24" height="24" viewBox="0 0 24 24" fill="none" xmlns="http://www.w3.org/2000/svg">
<path fill-rule="evenodd" clip-rule="evenodd" d="M10.0664 7.18411C10.0894 6.09822 10.9768 5.22502 12.0682 5.22502C13.1596 5.22502 14.047 6.09822 14.07 7.18411H10.0664ZM8.61593 8.63411V9.95457C8.61593 10.355 8.94053 10.6796 9.34093 10.6796C9.74134 10.6796 10.0659 10.355 10.0659 9.95457V8.63411H14.0705V9.95457C14.0705 10.355 14.3951 10.6796 14.7955 10.6796C15.1959 10.6796 15.5205 10.355 15.5205 9.95457V8.63411H16.3102C16.634 8.63411 16.9066 8.8765 16.9444 9.19812L17.8976 17.3003C17.99 18.0853 17.3766 18.775 16.5862 18.775H7.55024C6.75982 18.775 6.14648 18.0853 6.23883 17.3003L7.19202 9.19812C7.22986 8.8765 7.50244 8.63411 7.82629 8.63411H8.61593ZM8.6162 7.18411C8.63933 5.29737 10.176 3.77502 12.0682 3.77502C13.9604 3.77502 15.4971 5.29737 15.5202 7.18411H16.3102C17.3693 7.18411 18.2607 7.97684 18.3845 9.0287L19.3377 17.1309C19.5314 18.7779 18.2446 20.225 16.5862 20.225H7.55024C5.89187 20.225 4.60499 18.7779 4.79876 17.1309L5.75195 9.0287C5.8757 7.97684 6.76717 7.18411 7.82629 7.18411H8.6162Z" fill="#34BC48"/>
</svg>
