<svg width="20" height="22" viewBox="0 0 20 22" fill="none" xmlns="http://www.w3.org/2000/svg">
<path fill-rule="evenodd" clip-rule="evenodd" d="M7.17953 4.63637C7.17953 3.02847 8.483 1.725 10.0909 1.725C11.6988 1.725 13.0023 3.02846 13.0023 4.63636V4.82044H7.17953V4.63637ZM5.72953 6.27044V8.27273C5.72953 8.67314 6.05412 8.99773 6.45453 8.99773C6.85494 8.99773 7.17953 8.67314 7.17953 8.27273V6.27044H13.0023V8.27273C13.0023 8.67314 13.3269 8.99773 13.7273 8.99773C14.1277 8.99773 14.4523 8.67314 14.4523 8.27273V6.27044H15.7468C16.3011 6.27044 16.7677 6.68536 16.8325 7.2359L18.1034 18.0388C18.2435 19.2291 17.3134 20.275 16.1149 20.275H4.06692C2.86838 20.275 1.93833 19.2291 2.07837 18.0388L3.34929 7.2359C3.41406 6.68536 3.88065 6.27044 4.43499 6.27044H5.72953ZM5.72953 4.82044V4.63637C5.72953 2.22765 7.68218 0.275002 10.0909 0.275002C12.4996 0.275002 14.4523 2.22765 14.4523 4.63636V4.82044H15.7468C17.0364 4.82044 18.1219 5.7857 18.2726 7.06648L19.5435 17.8693C19.7849 19.9217 18.1814 21.725 16.1149 21.725H4.06692C2.00042 21.725 0.396844 19.9217 0.638298 17.8693L1.90922 7.06648C2.0599 5.7857 3.14537 4.82044 4.43499 4.82044H5.72953Z" fill="#878594"/>
</svg>
