<svg width="24" height="24" viewBox="0 0 24 24" fill="none" xmlns="http://www.w3.org/2000/svg">
<path fill-rule="evenodd" clip-rule="evenodd" d="M14.2833 7.73333C14.2833 8.99438 13.2611 10.0167 12 10.0167C10.7389 10.0167 9.71667 8.99438 9.71667 7.73333C9.71667 6.47228 10.7389 5.45 12 5.45C13.2611 5.45 14.2833 6.47228 14.2833 7.73333ZM15.7333 7.73333C15.7333 9.7952 14.0619 11.4667 12 11.4667C9.93814 11.4667 8.26667 9.7952 8.26667 7.73333C8.26667 5.67147 9.93814 4 12 4C14.0619 4 15.7333 5.67147 15.7333 7.73333ZM18.4214 18.55H18.4191H18.4086H18.3981H18.3876H18.3772H18.3667H18.3563H18.3458H18.3354H18.3249H18.3145H18.3041H18.2936H18.2832H18.2728H18.2624H18.252H18.2416H18.2312H18.2208H18.2104H18.2H18.1896H18.1792H18.1688H18.1584H18.148H18.1376H18.1273H18.1169H18.1065H18.0961H18.0857H18.0753H18.0649H18.0545H18.0441H18.0337H18.0233H18.0129H18.0025H17.9921H17.9817H17.9713H17.9609H17.9504H17.94H17.9296H17.9191H17.9087H17.8983H17.8878H17.8774H17.8669H17.8564H17.8459H17.8355H17.825H17.8145H17.804H17.7934H17.7829H17.7724H17.7618H17.7513H17.7407H17.7302H17.7196H17.709H17.6984H17.6878H17.6772H17.6666H17.6559H17.6453H17.6346H17.6239H17.6132H17.6025H17.5918H17.5811H17.5703H17.5596H17.5488H17.538H17.5272H17.5164H17.5056H17.4948H17.4839H17.473H17.4621H17.4512H17.4403H17.4294H17.4184H17.4075H17.3965H17.3855H17.3744H17.3634H17.3523H17.3413H17.3302H17.319H17.3079H17.2967H17.2856H17.2744H17.2631H17.2519H17.2406H17.2294H17.2181H17.2067H17.1954H17.184H17.1726H17.1612H17.1498H17.1383H17.1268H17.1153H17.1038H17.0922H17.0806H17.069H17.0574H17.0457H17.0341H17.0223H17.0106H16.9988H16.9871H16.9752H16.9634H16.9515H16.9396H16.9277H16.9157H16.9038H16.8917H16.8797H16.8676H16.8555H16.8434H16.8312H16.819H16.8068H16.7946H16.7823H16.77H16.7576H16.7453H16.7328H16.7204H16.7079H16.6954H16.6829H16.6703H16.6577H16.645H16.6324H16.6197H16.6069H16.5941H16.5813H16.5685H16.5556H16.5427H16.5297H16.5167H16.5037H16.4906H16.4775H16.4643H16.4512H16.4379H16.4247H16.4114H16.398H16.3847H16.3713H16.3578H16.3443H16.3308H16.3172H16.3036H16.2899H16.2762H16.2625H16.2487H16.2349H16.221H16.2071H16.1932H16.1792H16.1651H16.1511H16.1369H16.1228H16.1086H16.0943H16.08H16.0657H16.0513H16.0368H16.0223H16.0078H15.9932H15.9786H15.9639H15.9492H15.9345H15.9197H15.9048H15.8899H15.8749H15.8599H15.8449H15.8298H15.8146H15.7994H15.7842H15.7689H15.7535H15.7381H15.7227H15.7072H15.6916H15.676H15.6604H15.6446H15.6289H15.6131H15.5972H15.5813H15.5653H15.5493H15.5332H15.517H15.5009H15.4846H15.4683H15.4519H15.4355H15.4191H15.4025H15.386H15.3693H15.3526H15.3359H15.3191H15.3022H15.2853H15.2683H15.2512H15.2341H15.217H15.1998H15.1825H15.1651H15.1477H15.1303H15.1128H15.0952H15.0776H15.0599H15.0421H15.0243H15.0064H14.9884H14.9704H14.9523H14.9342H14.916H14.8977H14.8794H14.861H14.8426H14.824H14.8055H14.7868H14.7681H14.7493H14.7305H14.7116H14.6926H14.6735H14.6544H14.6352H14.616H14.5967H14.5773H14.5578H14.5383H14.5187H14.4991H14.4793H14.4595H14.4397H14.4197H14.3997H14.3796H14.3595H14.3393H14.319H14.2986H14.2782H14.2577H14.2371H14.2165H14.1957H14.1749H14.1541H14.1331H14.1121H14.091H14.0698H14.0486H14.0273H14.0059H13.9844H13.9629H13.9413H13.9196H13.8978H13.876H13.854H13.832H13.81H13.7878H13.7656H13.7433H13.7209H13.6984H13.6758H13.6532H13.6305H13.6077H13.5849H13.5619H13.5389H13.5158H13.4926H13.4693H13.4459H13.4225H13.399H13.3754H13.3517H13.328H13.3041H13.2802H13.2562H13.2321H13.2079H13.1836H13.1593H13.1348H13.1103H13.0857H13.061H13.0362H13.0113H12.9864H12.9614H12.9362H12.911H12.8857H12.8603H12.8348H12.8093H12.7836H12.7579H12.7321H12.7061H12.6801H12.654H12.6278H12.6016H12.5752H12.5487H12.5222H12.4955H12.4688H12.442H12.415H12.388H12.3609H12.3337H12.3064H12.279H12.2516H12.224H12.1963H12.1686H12.1407H12.1128H12.0847H12.0566H12.0283H12H11.9717H11.9434H11.9153H11.8872H11.8593H11.8314H11.8037H11.776H11.7484H11.721H11.6936H11.6663H11.6391H11.612H11.585H11.558H11.5312H11.5045H11.4778H11.4513H11.4248H11.3984H11.3722H11.346H11.3199H11.2939H11.2679H11.2421H11.2164H11.1907H11.1652H11.1397H11.1143H11.089H11.0638H11.0386H11.0136H10.9887H10.9638H10.939H10.9143H10.8897H10.8652H10.8407H10.8164H10.7921H10.7679H10.7438H10.7198H10.6959H10.6721H10.6483H10.6246H10.601H10.5775H10.5541H10.5307H10.5074H10.4842H10.4611H10.4381H10.4151H10.3923H10.3695H10.3468H10.3242H10.3016H10.2791H10.2567H10.2344H10.2122H10.19H10.168H10.146H10.124H10.1022H10.0804H10.0587H10.0371H10.0156H9.9941H9.97271H9.9514H9.93015H9.90899H9.8879H9.86688H9.84594H9.82506H9.80427H9.78354H9.76289H9.74231H9.72181H9.70138H9.68101H9.66072H9.6405H9.62035H9.60028H9.58027H9.56033H9.54047H9.52067H9.50094H9.48128H9.46169H9.44217H9.42272H9.40334H9.38402H9.36477H9.34559H9.32648H9.30743H9.28845H9.26954H9.25069H9.23191H9.21319H9.19454H9.17595H9.15743H9.13898H9.12059H9.10226H9.08399H9.06579H9.04766H9.02958H9.01157H8.99362H8.97573H8.95791H8.94015H8.92245H8.90481H8.88723H8.86971H8.85225H8.83485H8.81752H8.80024H8.78302H8.76586H8.74876H8.73172H8.71473H8.69781H8.68094H8.66413H8.64738H8.63068H8.61405H8.59747H8.58094H8.56447H8.54806H8.5317H8.5154H8.49915H8.48296H8.46682H8.45073H8.4347H8.41873H8.40281H8.38694H8.37112H8.35536H8.33965H8.32399H8.30838H8.29283H8.27732H8.26187H8.24647H8.23112H8.21582H8.20057H8.18537H8.17022H8.15512H8.14006H8.12506H8.11011H8.0952H8.08034H8.06553H8.05077H8.03605H8.02139H8.00676H7.99219H7.97766H7.96318H7.94874H7.93435H7.92H7.9057H7.89145H7.87724H7.86307H7.84895H7.83487H7.82083H7.80684H7.79289H7.77898H7.76511H7.75129H7.73751H7.72377H7.71007H7.69642H7.6828H7.66923H7.65569H7.6422H7.62874H7.61533H7.60195H7.58862H7.57532H7.56206H7.54884H7.53566H7.52251H7.5094H7.49633H7.4833H7.47031H7.45735H7.44442H7.43154H7.41868H7.40587H7.39309H7.38034H7.36763H7.35495H7.34231H7.3297H7.31713H7.30458H7.29208H7.2796H7.26716H7.25475H7.24237H7.23002H7.21771H7.20543H7.19317H7.18095H7.16876H7.1566H7.14447H7.13237H7.1203H7.10826H7.09624H7.08426H7.07231H7.06038H7.04848H7.03661H7.02476H7.01295H7.00116H6.9894H6.97766H6.96595H6.95427H6.94261H6.93097H6.91937H6.90778H6.89623H6.88469H6.87318H6.8617H6.85023H6.8388H6.82738H6.81599H6.80462H6.79327H6.78194H6.77064H6.75936H6.7481H6.73686H6.72564H6.71444H6.70326H6.69211H6.68097H6.66985H6.65875H6.64767H6.63661H6.62556H6.61454H6.60353H6.59254H6.58157H6.57062H6.55968H6.54876H6.53785H6.52696H6.51609H6.50524H6.49439H6.48357H6.47276H6.46196H6.45118H6.44041H6.42966H6.41891H6.40819H6.39747H6.38677H6.37608H6.36541H6.35474H6.34409H6.33345H6.32282H6.3122H6.30159H6.29099H6.28041H6.26983H6.25926H6.2487H6.23815H6.22761H6.21708H6.20656H6.19604H6.18554H6.17504H6.16455H6.15406H6.14359H6.13311H6.12265H6.11219H6.10174H6.09129H6.08085H6.07041H6.05998H6.04956H6.03913H6.02872H6.0183H6.00789H5.99748H5.98708H5.97667H5.96627H5.95588H5.94548H5.93509H5.9247H5.91431H5.90392H5.89353H5.88314H5.87275H5.86236H5.85197H5.84158H5.83119H5.8208H5.81041H5.80002H5.78962H5.77922H5.76882H5.75842H5.74801H5.7376H5.72719H5.71677H5.70635H5.69593H5.6855H5.67507H5.66463H5.65419H5.64374H5.63328H5.62282H5.61236H5.60188H5.5914H5.58092H5.57857C5.54781 18.3839 5.51998 18.2244 5.49677 18.0562C5.41498 17.4634 5.43926 17.0463 5.58106 16.7292C5.69834 16.4669 5.98996 16.0635 6.92518 15.7058C7.8985 15.3335 9.48039 15.05 12 15.05C14.5196 15.05 16.1015 15.3335 17.0748 15.7058C18.01 16.0635 18.3017 16.4669 18.4189 16.7292C18.5607 17.0463 18.585 17.4634 18.5032 18.0562C18.48 18.2244 18.4522 18.3839 18.4214 18.55ZM19.6741 20H18.2241H12H5.77589H4.32589C4.32589 19.7316 4.26266 19.397 4.19191 19.0227C3.79682 16.9323 3.16701 13.6 12 13.6C20.833 13.6 20.2032 16.9323 19.8081 19.0227C19.7373 19.397 19.6741 19.7316 19.6741 20Z" fill="#878594"/>
</svg>
