<svg width="22" height="22" viewBox="0 0 22 22" fill="none" xmlns="http://www.w3.org/2000/svg">
<path fill-rule="evenodd" clip-rule="evenodd" d="M11.0004 0.925026C8.93561 0.925026 7.34206 2.63024 7.34206 4.66861C7.34206 4.88758 7.36817 5.10881 7.41622 5.33076L8.12481 5.17736L7.41602 5.32982C7.62583 6.30521 8.26407 7.32868 9.10261 8.30238L9.10364 8.30357C9.54337 8.81194 10.0166 9.29033 10.5202 9.73553L11.0054 10.1645L11.4862 9.7305L11.6842 9.55175L11.6842 9.55177L11.6888 9.54758C12.1003 9.16961 12.5138 8.74969 12.8993 8.30127C13.7392 7.32693 14.376 6.30276 14.5857 5.3269L14.5861 5.32526C14.6326 5.10634 14.6587 4.88681 14.6587 4.66861C14.6587 2.64785 13.0571 0.925026 11.0004 0.925026ZM8.79206 4.66861C8.79206 3.38315 9.7835 2.37503 11.0004 2.37503C12.207 2.37503 13.2087 3.39854 13.2087 4.66861C13.2087 4.77104 13.1964 4.88858 13.1679 5.02316C13.0327 5.65118 12.5771 6.45434 11.8006 7.35495L11.7999 7.35575C11.5455 7.6517 11.2753 7.93618 11.0003 8.20352C10.7219 7.93247 10.4552 7.64957 10.2008 7.35558C9.42451 6.45402 8.96842 5.6517 8.83359 5.0249L8.83339 5.02395C8.80444 4.89024 8.79206 4.77231 8.79206 4.66861ZM4.66897 7.34165C2.64821 7.34165 0.925385 8.9433 0.925385 11C0.925385 13.0648 2.6306 14.6583 4.66897 14.6583C4.88762 14.6583 5.10855 14.6323 5.33018 14.5844C6.30557 14.3745 7.32904 13.7363 8.30274 12.8978L8.30393 12.8967C8.8123 12.457 9.29068 11.9838 9.73589 11.4802L10.1604 11L9.73595 10.5199C9.29048 10.0158 8.81174 9.54225 8.30295 9.10226L8.30213 9.10156C7.32834 8.26198 6.30476 7.62528 5.32936 7.41511C5.11391 7.36764 4.89404 7.34302 4.67341 7.34167L4.67341 7.34165H4.66897ZM5.33018 14.5844L5.17772 13.8756L5.33112 14.5842L5.33018 14.5844ZM2.37538 11C2.37538 9.79405 3.39768 8.79285 4.6667 8.79165C4.78502 8.79253 4.90293 8.80585 5.01847 8.83139L5.01847 8.83141L5.02267 8.83231C5.65071 8.96725 6.45402 9.42276 7.35484 10.1993C7.6493 10.454 7.93262 10.7211 8.20404 10.9999C7.93293 11.2784 7.64995 11.5452 7.35588 11.7996C6.45434 12.5759 5.65205 13.032 5.02526 13.1668L5.02431 13.167C4.89059 13.1959 4.77267 13.2083 4.66897 13.2083C3.38351 13.2083 2.37538 12.2169 2.37538 11ZM11.4806 12.2645L10.9953 11.8355L10.5146 12.2695L10.3166 12.4483L10.3165 12.4483L10.312 12.4525C9.90047 12.8304 9.48709 13.2503 9.10162 13.6987C8.26222 14.6723 7.62566 15.6958 7.41552 16.671C7.36804 16.8865 7.34342 17.1064 7.34206 17.327V17.3314C7.34206 19.3522 8.94371 21.075 11.0004 21.075C13.0652 21.075 14.6587 19.3698 14.6587 17.3314C14.6587 17.1126 14.6326 16.8915 14.5847 16.6697C14.3747 15.6945 13.7366 14.6712 12.8982 13.6977L12.8971 13.6965C12.4574 13.1881 11.9842 12.7097 11.4806 12.2645ZM14.5847 16.6697L14.5848 16.6702L13.876 16.8227L14.5846 16.6693L14.5847 16.6697ZM10.2008 14.6443C10.4552 14.3483 10.7254 14.0639 11.0005 13.7965C11.2789 14.0676 11.5456 14.3504 11.7999 14.6444C12.5763 15.546 13.0324 16.3483 13.1672 16.9751L13.1674 16.9761C13.1963 17.1098 13.2087 17.2277 13.2087 17.3314C13.2087 18.6169 12.2173 19.625 11.0004 19.625C9.79446 19.625 8.79325 18.6027 8.79206 17.3337C8.79294 17.2154 8.80626 17.0975 8.83181 16.9819L8.83271 16.9777C8.96767 16.3496 9.42333 15.5461 10.2002 14.6451L10.2008 14.6443ZM16.6696 7.41585C16.8916 7.3678 17.1128 7.34168 17.3318 7.34168C19.3702 7.34168 21.0754 8.93524 21.0754 11C21.0754 13.0567 19.3526 14.6583 17.3318 14.6583C17.1136 14.6583 16.8941 14.6322 16.6751 14.5857L16.6735 14.5853C15.6976 14.3757 14.6734 13.7388 13.6991 12.8988C13.2507 12.5133 12.8308 12.0999 12.4528 11.6884L12.4486 11.6839L12.4487 11.6838L12.2699 11.4858L11.8359 11.0051L12.2649 10.5198C12.7101 10.0162 13.1885 9.54299 13.6968 9.10327L13.698 9.10224C14.6717 8.26369 15.6952 7.62545 16.6706 7.41564L16.8231 8.12443L16.6696 7.41585ZM17.3318 8.79168C17.2281 8.79168 17.1102 8.80407 16.9765 8.83302L16.9755 8.83322C16.3487 8.96805 15.5464 9.42412 14.6449 10.2004C14.3509 10.4548 14.068 10.7215 13.7969 10.9999C14.0642 11.275 14.3487 11.5452 14.6447 11.7996L14.6455 11.8003C15.5461 12.5767 16.3492 13.0323 16.9772 13.1675C17.1118 13.196 17.2294 13.2083 17.3318 13.2083C18.6019 13.2083 19.6254 12.2067 19.6254 11C19.6254 9.78313 18.6173 8.79168 17.3318 8.79168Z" fill="#878594"/>
</svg>
