<svg width="24" height="24" viewBox="0 0 24 24" fill="none" xmlns="http://www.w3.org/2000/svg">
<path fill-rule="evenodd" clip-rule="evenodd" d="M5.22502 11.5C5.22502 8.03444 8.03444 5.22502 11.5 5.22502C14.9656 5.22502 17.775 8.03444 17.775 11.5C17.775 14.9656 14.9656 17.775 11.5 17.775C8.03444 17.775 5.22502 14.9656 5.22502 11.5ZM11.5 3.77502C7.23362 3.77502 3.77502 7.23362 3.77502 11.5C3.77502 15.7664 7.23362 19.225 11.5 19.225C13.3722 19.225 15.0887 18.5591 16.4258 17.4511L18.9874 20.0127C19.2705 20.2958 19.7295 20.2958 20.0127 20.0127C20.2958 19.7295 20.2958 19.2705 20.0127 18.9874L17.4511 16.4258C18.5591 15.0887 19.225 13.3722 19.225 11.5C19.225 7.23362 15.7664 3.77502 11.5 3.77502Z" fill="#807F8A"/>
</svg>
