<svg width="24" height="24" viewBox="0 0 24 24" fill="none" xmlns="http://www.w3.org/2000/svg">
<path fill-rule="evenodd" clip-rule="evenodd" d="M12.7251 4.9C12.7251 4.49959 12.4005 4.175 12.0001 4.175C11.5997 4.175 11.2751 4.49959 11.2751 4.9V11.2732L4.90194 11.2732C4.50153 11.2732 4.17694 11.5978 4.17694 11.9982C4.17694 12.3986 4.50153 12.7232 4.90194 12.7232H11.2751V19.0963C11.2751 19.4967 11.5997 19.8213 12.0001 19.8213C12.4005 19.8213 12.7251 19.4967 12.7251 19.0963V12.7232H19.0982C19.4986 12.7232 19.8232 12.3986 19.8232 11.9982C19.8232 11.5978 19.4986 11.2732 19.0982 11.2732L12.7251 11.2732V4.9Z" fill="#ACAAB3"/>
</svg>
