<svg width="20" height="20" viewBox="0 0 20 20" fill="none" xmlns="http://www.w3.org/2000/svg">
<path fill-rule="evenodd" clip-rule="evenodd" d="M10.0002 0.274979C7.61598 0.274979 5.41385 2.20469 5.55897 4.72001L5.55966 4.73196L5.56074 4.74389C5.58405 5.00025 5.69998 5.65779 5.79945 6.20251C5.85115 6.48564 5.90157 6.75495 5.93904 6.95334L5.98416 7.19107L5.99675 7.25693L6.00008 7.27429L6.0003 7.27547C6.34858 9.22444 7.71297 11.1163 10.0002 11.1163C12.3311 11.1163 13.6529 9.21826 14 7.27546L14.0002 7.27429L14.0036 7.25693L14.0162 7.19107L14.0613 6.95334C14.0987 6.75495 14.1492 6.48563 14.2009 6.20251C14.3003 5.65779 14.4163 5.00025 14.4396 4.74389L14.4413 4.72477L14.442 4.70559C14.5375 2.17501 12.4378 0.274979 10.0002 0.274979ZM7.42515 7.00655L6.7132 7.14346L7.42515 7.00654L7.42514 7.00648L7.42509 7.00623L7.42489 7.00519L7.42408 7.00093L7.42084 6.98408L7.40846 6.91931L7.36385 6.68426C7.32673 6.48768 7.27688 6.2214 7.22586 5.94203C7.12206 5.37359 7.02467 4.81017 7.00586 4.62377C6.92452 3.07484 8.31937 1.72498 10.0002 1.72498C11.7031 1.72498 13.0427 3.02264 12.9938 4.63045C12.9734 4.82333 12.877 5.38023 12.7744 5.94203C12.7234 6.2214 12.6736 6.48769 12.6365 6.68426L12.5919 6.91931L12.5795 6.98408L12.5762 7.00094L12.5754 7.00519L12.5752 7.00624L12.5752 7.00648L12.5752 7.00654L12.673 7.02536L12.5733 7.01656C12.2929 8.59373 11.3454 9.66628 10.0002 9.66628C8.68934 9.66628 7.70629 8.58753 7.42701 7.01656L7.42708 7.01655L7.42515 7.00655ZM10.088 12.0254L9.96099 12.0028L9.834 12.0254L3.45574 13.1602L3.45572 13.1601L3.44582 13.162C2.2492 13.3921 0.986082 14.2099 0.717677 15.6593L0.714392 15.6771L0.711993 15.695L0.524728 17.0909L0.521046 17.1184C0.482209 17.4077 0.447159 17.6689 0.43672 17.8871C0.425607 18.1195 0.436911 18.377 0.539933 18.6365C0.685966 19.0044 0.95406 19.3108 1.29925 19.5045C1.54276 19.6411 1.79649 19.6865 2.02824 19.7064C2.24592 19.7251 2.50939 19.7251 2.80132 19.7251H2.8014L2.82909 19.7251H17.1489L17.1768 19.7251H17.1769C17.4721 19.7251 17.7382 19.7251 17.9578 19.7062C18.1915 19.6861 18.4474 19.6401 18.6925 19.5015C19.0395 19.3052 19.3077 18.9948 19.4517 18.6231C19.5534 18.3605 19.5618 18.1006 19.5479 17.8665C19.5348 17.6464 19.4962 17.3831 19.4535 17.091L19.4535 17.0909L19.4494 17.0634L19.2479 15.6864L19.2459 15.6728L19.2434 15.6593C18.9717 14.192 17.6881 13.431 16.4965 13.1662L16.4814 13.1629L16.4662 13.1602L10.088 12.0254ZM2.14646 15.9076C2.27589 15.2528 2.88585 14.7477 3.71498 14.5868L9.96099 13.4756L16.1964 14.5849C17.104 14.7903 17.6914 15.275 17.8154 15.9114L18.0147 17.2734C18.0628 17.6018 18.0915 17.8025 18.1004 17.9526C18.1064 18.0525 18.1004 18.0928 18.0985 18.1022C18.0756 18.1593 18.0343 18.2071 17.9811 18.2379C17.9721 18.2412 17.9331 18.2529 17.8335 18.2615C17.6836 18.2744 17.4809 18.2751 17.1489 18.2751H2.82909C2.50062 18.2751 2.3003 18.2744 2.15215 18.2617C2.05362 18.2533 2.01512 18.2417 2.00619 18.2385C1.95318 18.208 1.91184 18.1608 1.8887 18.1042C1.88669 18.0949 1.88034 18.0552 1.88506 17.9564C1.89217 17.8079 1.91818 17.6093 1.96185 17.2837L2.14646 15.9076Z" fill="#878594"/>
</svg>
