<svg width="80" height="80" viewBox="0 0 80 80" fill="none" xmlns="http://www.w3.org/2000/svg">
<path d="M26.6667 13.1765V58.9804H59.2942V13.1765H26.6667Z" fill="white" stroke="#CADEE5" stroke-width="0.941177" stroke-linecap="round" stroke-linejoin="round"/>
<path d="M29.804 16.3137V33.5686H56.1569V16.3137H29.804Z" fill="white" stroke="#CADEE5" stroke-width="0.941177" stroke-linecap="round" stroke-linejoin="round"/>
<path d="M59.2942 13.1765V58.9804H67.4511V13.1765H59.2942Z" fill="white" stroke="#CADEE5" stroke-width="0.941177" stroke-linecap="round" stroke-linejoin="round"/>
<path d="M31.1639 31.0568H15.0588C16.5085 28.585 18.771 24.7843 18.771 24.7843H34.8761L31.1639 31.0568Z" fill="white"/>
<path d="M15.0588 31.012C15.0588 31.012 24.8745 31.012 31.1639 31.012C31.1639 43.5271 31.1639 63.0588 31.1639 63.0588H15.0588V31.012Z" fill="white"/>
<path d="M15.0588 31.012C15.0588 31.012 24.8745 31.012 31.1639 31.012M15.0588 31.012V63.0588H31.1639C31.1639 63.0588 31.1639 43.5271 31.1639 31.012M15.0588 31.012C16.5085 28.5402 18.771 24.7395 18.771 24.7395H34.8761M31.1639 31.012C32.6136 28.5402 34.8761 24.7395 34.8761 24.7395M31.1639 31.012L34.8761 24.7395M34.8761 24.7395L38.5883 31.012" stroke="#CADEE5" stroke-width="0.941177" stroke-linecap="round" stroke-linejoin="round"/>
<path d="M31.1934 31.014H34.8908H38.5883V63.0589H31.1934V31.014Z" fill="white" stroke="#CADEE5" stroke-width="0.941177" stroke-linecap="round" stroke-linejoin="round"/>
<path d="M31.1933 22.2745H22.4538C21.0924 22.2745 19.9888 23.3781 19.9888 24.7395H33.6582C33.6582 23.3781 32.5546 22.2745 31.1933 22.2745Z" fill="white" stroke="#CADEE5" stroke-width="0.941177" stroke-linecap="round" stroke-linejoin="round"/>
<path d="M42.353 46.6361C42.353 46.2943 42.5383 45.9793 42.8371 45.8133L44.2501 45.0283C45.1592 44.5233 45.723 43.565 45.723 42.525H48.1569H50.5909C50.5909 43.565 51.1547 44.5233 52.0638 45.0283L53.4768 45.8133C53.7756 45.9793 53.9609 46.2943 53.9609 46.6361V66.6768H42.353V46.6361Z" fill="white" stroke="#CADEE5" stroke-width="0.941177" stroke-linecap="round" stroke-linejoin="round"/>
<path d="M53.9609 65.1082V53.9456C52.1941 55.0854 49.9237 55.0854 48.1569 53.9456L47.9409 53.8062C46.3057 52.7512 44.2043 52.7512 42.5691 53.8062C42.4344 53.8931 42.353 54.0424 42.353 54.2027V65.1082C42.353 65.9745 43.0553 66.6768 43.9217 66.6768H52.3922C53.2586 66.6768 53.9609 65.9745 53.9609 65.1082Z" fill="white" stroke="#CADEE5" stroke-width="0.941177" stroke-linecap="round" stroke-linejoin="round"/>
<rect x="44.2251" y="39.5294" width="7.86338" height="2.99557" rx="0.941177" fill="white" stroke="#CADEE5" stroke-width="0.941177" stroke-linecap="round" stroke-linejoin="round"/>
<path d="M22.5862 58.9507C22.7142 53.8175 17.726 54.0968 15.0591 55.2703C12.3921 54.0968 7.40392 53.8175 7.53194 58.9507C7.69195 66.1515 12.0188 67.3514 13.1389 66.7913C13.939 66.3913 14.739 66.3113 15.0591 66.3113C15.3792 66.3113 16.1791 66.3913 16.9792 66.7913C18.0993 67.3514 22.4262 66.1515 22.5862 58.9507Z" fill="white"/>
<path d="M15.0591 55.2703C17.726 54.0968 22.7142 53.8175 22.5862 58.9507C22.4262 66.1515 18.0993 67.3514 16.9792 66.7913C16.1791 66.3913 15.3792 66.3113 15.0591 66.3113C14.739 66.3113 13.939 66.3913 13.1389 66.7913C12.0188 67.3514 7.69195 66.1515 7.53194 58.9507C7.40392 53.8175 12.3921 54.0968 15.0591 55.2703ZM15.0591 55.2703C14.9022 54.2743 14.2747 53.0194 12.7061 52.392" stroke="#CADEE5" stroke-width="0.941177" stroke-linecap="round" stroke-linejoin="round"/>
<path d="M15.0132 55.2908C14.5974 54.1965 14.5565 51.7125 17.7195 50.531C18.4221 51.3056 17.3721 53.8512 15.0132 55.2908Z" fill="white" stroke="#CADEE5" stroke-width="0.941177" stroke-linecap="round" stroke-linejoin="round"/>
</svg>
